<svg width="24" height="24" viewBox="0 0 24 24" fill="none" xmlns="http://www.w3.org/2000/svg">
<path d="M5.4001 4.85449L9.3002 8.49764L8.0999 9.78242L6.28009 8.08404V15.5199C6.28009 16.4879 7.06856 17.2799 8.04006 17.2799H12.88V19.0399H8.04006C6.09617 19.0399 4.52011 17.4647 4.52011 15.5199V8.08404L2.7003 9.78242L1.5 8.49764L5.4001 4.85449ZM15.9599 6.72006H11.12V4.96009H15.9599C17.9038 4.96009 19.4799 6.53527 19.4799 8.48004V15.9159L21.2997 14.2176L22.5 15.5023L18.5999 19.1455L14.6998 15.5023L15.9001 14.2176L17.7199 15.9159V8.48004C17.7199 7.51205 16.9314 6.72006 15.9599 6.72006Z" fill="#E7E9EA"/>
</svg>
